<svg xmlns="http://www.w3.org/2000/svg" viewBox="0 0 120 32" role="img" aria-labelledby="title">
  <title>Spotify Logo</title>
  <rect width="120" height="32" fill="none" rx="6"></rect>
  <g fill="#1DB954">
    <path d="M16 4a12 12 0 1 0 0 24 12 12 0 0 0 0-24zm5.01 17.14a1.2 1.2 0 0 1-1.64.42c-3.79-2.32-8.57-2.84-14.18-1.53a1.2 1.2 0 0 1-.54-2.33c6.16-1.43 11.52-.8 15.87 1.84.57.34.76 1.08.5 1.6zm1.25-3.98a1.42 1.42 0 0 1-1.95.49c-3.26-1.93-8.21-2.49-12.06-1.34-.76.23-1.56-.19-1.78-.95a1.46 1.46 0 0 1 .97-1.78c4.67-1.42 10.21-.8 14.1 1.53.68.39.9 1.26.52 1.93zm.18-4.2c-3.83-2.27-10.21-2.48-13.87-1.35a1.68 1.68 0 0 1-.98-3.22c4.52-1.38 11.78-1.11 16.57 1.71a1.68 1.68 0 0 1-1.72 2.86z" />
  </g>
  <text x="36" y="21" font-family="'Inter', Arial, sans-serif" font-size="16" font-weight="600" fill="#0F172A" letter-spacing="0.08em">SPOTIFY</text>
</svg>








